<mxfile host="app.diagrams.net" modified="2024-05-20T14:45:20.221Z" agent="Mozilla/5.0 (Windows NT 10.0; Win64; x64) AppleWebKit/537.36 (KHTML, like Gecko) Chrome/124.0.0.0 Safari/537.36" etag="HDGi1aICGEDi0BrmCMBh" version="24.4.4" type="google">
  <diagram name="Página-1" id="0hESYHBAWO0vc-OcdQp4">
    <mxGraphModel grid="1" page="1" gridSize="10" guides="1" tooltips="1" connect="1" arrows="1" fold="1" pageScale="1" pageWidth="827" pageHeight="1169" math="0" shadow="0">
      <root>
        <mxCell id="0" />
        <mxCell id="1" parent="0" />
        <mxCell id="yxgYQERjwBnxyQySMjnh-3" style="edgeStyle=orthogonalEdgeStyle;rounded=0;orthogonalLoop=1;jettySize=auto;html=1;" edge="1" parent="1" source="yxgYQERjwBnxyQySMjnh-1" target="yxgYQERjwBnxyQySMjnh-2">
          <mxGeometry relative="1" as="geometry" />
        </mxCell>
        <mxCell id="yxgYQERjwBnxyQySMjnh-1" value="ini" style="strokeWidth=2;html=1;shape=mxgraph.flowchart.start_1;whiteSpace=wrap;" vertex="1" parent="1">
          <mxGeometry x="364" y="20" width="100" height="60" as="geometry" />
        </mxCell>
        <mxCell id="yxgYQERjwBnxyQySMjnh-5" style="edgeStyle=orthogonalEdgeStyle;rounded=0;orthogonalLoop=1;jettySize=auto;html=1;" edge="1" parent="1" source="yxgYQERjwBnxyQySMjnh-2" target="yxgYQERjwBnxyQySMjnh-4">
          <mxGeometry relative="1" as="geometry" />
        </mxCell>
        <mxCell id="yxgYQERjwBnxyQySMjnh-2" value="declara&amp;nbsp;&lt;br&gt;lista dudes&lt;div&gt;&lt;br&gt;nome,preco, meia, carteirinha&lt;/div&gt;" style="rounded=1;whiteSpace=wrap;html=1;absoluteArcSize=1;arcSize=14;strokeWidth=2;" vertex="1" parent="1">
          <mxGeometry x="364" y="130" width="100" height="100" as="geometry" />
        </mxCell>
        <mxCell id="yxgYQERjwBnxyQySMjnh-7" value="" style="edgeStyle=orthogonalEdgeStyle;rounded=0;orthogonalLoop=1;jettySize=auto;html=1;" edge="1" parent="1" source="yxgYQERjwBnxyQySMjnh-4" target="yxgYQERjwBnxyQySMjnh-6">
          <mxGeometry relative="1" as="geometry" />
        </mxCell>
        <mxCell id="yxgYQERjwBnxyQySMjnh-4" value="recebe nome" style="html=1;strokeWidth=2;shape=manualInput;whiteSpace=wrap;rounded=1;size=26;arcSize=11;" vertex="1" parent="1">
          <mxGeometry x="364" y="290" width="100" height="60" as="geometry" />
        </mxCell>
        <mxCell id="yxgYQERjwBnxyQySMjnh-9" value="" style="edgeStyle=orthogonalEdgeStyle;rounded=0;orthogonalLoop=1;jettySize=auto;html=1;" edge="1" parent="1" source="yxgYQERjwBnxyQySMjnh-6" target="yxgYQERjwBnxyQySMjnh-8">
          <mxGeometry relative="1" as="geometry" />
        </mxCell>
        <mxCell id="yxgYQERjwBnxyQySMjnh-6" value="recebe preco" style="html=1;strokeWidth=2;shape=manualInput;whiteSpace=wrap;rounded=1;size=26;arcSize=11;" vertex="1" parent="1">
          <mxGeometry x="364" y="380" width="100" height="60" as="geometry" />
        </mxCell>
        <mxCell id="yxgYQERjwBnxyQySMjnh-13" style="edgeStyle=orthogonalEdgeStyle;rounded=0;orthogonalLoop=1;jettySize=auto;html=1;" edge="1" parent="1" source="yxgYQERjwBnxyQySMjnh-8" target="yxgYQERjwBnxyQySMjnh-12">
          <mxGeometry relative="1" as="geometry" />
        </mxCell>
        <mxCell id="yxgYQERjwBnxyQySMjnh-8" value="recebe meia" style="html=1;strokeWidth=2;shape=manualInput;whiteSpace=wrap;rounded=1;size=26;arcSize=11;" vertex="1" parent="1">
          <mxGeometry x="364" y="470" width="100" height="60" as="geometry" />
        </mxCell>
        <mxCell id="yxgYQERjwBnxyQySMjnh-16" style="edgeStyle=orthogonalEdgeStyle;rounded=0;orthogonalLoop=1;jettySize=auto;html=1;" edge="1" parent="1" source="yxgYQERjwBnxyQySMjnh-12" target="yxgYQERjwBnxyQySMjnh-14">
          <mxGeometry relative="1" as="geometry" />
        </mxCell>
        <mxCell id="yxgYQERjwBnxyQySMjnh-17" value="sim" style="edgeLabel;html=1;align=center;verticalAlign=middle;resizable=0;points=[];" connectable="0" vertex="1" parent="yxgYQERjwBnxyQySMjnh-16">
          <mxGeometry x="0.24" y="1" relative="1" as="geometry">
            <mxPoint x="-9" y="1" as="offset" />
          </mxGeometry>
        </mxCell>
        <mxCell id="yxgYQERjwBnxyQySMjnh-19" style="edgeStyle=orthogonalEdgeStyle;rounded=0;orthogonalLoop=1;jettySize=auto;html=1;" edge="1" parent="1" source="yxgYQERjwBnxyQySMjnh-12" target="yxgYQERjwBnxyQySMjnh-18">
          <mxGeometry relative="1" as="geometry" />
        </mxCell>
        <mxCell id="yxgYQERjwBnxyQySMjnh-12" value="se meia == &#39;sim&#39;" style="strokeWidth=2;html=1;shape=mxgraph.flowchart.decision;whiteSpace=wrap;" vertex="1" parent="1">
          <mxGeometry x="364" y="570" width="100" height="100" as="geometry" />
        </mxCell>
        <mxCell id="yxgYQERjwBnxyQySMjnh-31" style="edgeStyle=orthogonalEdgeStyle;rounded=0;orthogonalLoop=1;jettySize=auto;html=1;" edge="1" parent="1" source="yxgYQERjwBnxyQySMjnh-14" target="yxgYQERjwBnxyQySMjnh-18">
          <mxGeometry relative="1" as="geometry">
            <Array as="points">
              <mxPoint x="560" y="770" />
            </Array>
          </mxGeometry>
        </mxCell>
        <mxCell id="yxgYQERjwBnxyQySMjnh-14" value="recebe carteirinha" style="html=1;strokeWidth=2;shape=manualInput;whiteSpace=wrap;rounded=1;size=26;arcSize=11;" vertex="1" parent="1">
          <mxGeometry x="520" y="590" width="100" height="60" as="geometry" />
        </mxCell>
        <mxCell id="yxgYQERjwBnxyQySMjnh-21" value="" style="edgeStyle=orthogonalEdgeStyle;rounded=0;orthogonalLoop=1;jettySize=auto;html=1;" edge="1" parent="1" source="yxgYQERjwBnxyQySMjnh-18" target="yxgYQERjwBnxyQySMjnh-20">
          <mxGeometry relative="1" as="geometry" />
        </mxCell>
        <mxCell id="yxgYQERjwBnxyQySMjnh-18" value="lista dudes recebe um dicionário com os valores recebidos" style="rounded=1;whiteSpace=wrap;html=1;absoluteArcSize=1;arcSize=14;strokeWidth=2;" vertex="1" parent="1">
          <mxGeometry x="356" y="720" width="116" height="100" as="geometry" />
        </mxCell>
        <mxCell id="yxgYQERjwBnxyQySMjnh-25" style="edgeStyle=orthogonalEdgeStyle;rounded=0;orthogonalLoop=1;jettySize=auto;html=1;" edge="1" parent="1" source="yxgYQERjwBnxyQySMjnh-20" target="yxgYQERjwBnxyQySMjnh-24">
          <mxGeometry relative="1" as="geometry" />
        </mxCell>
        <mxCell id="yxgYQERjwBnxyQySMjnh-20" value="somar todos os preços" style="whiteSpace=wrap;html=1;rounded=1;arcSize=14;strokeWidth=2;" vertex="1" parent="1">
          <mxGeometry x="354" y="880" width="120" height="60" as="geometry" />
        </mxCell>
        <mxCell id="yxgYQERjwBnxyQySMjnh-27" style="edgeStyle=orthogonalEdgeStyle;rounded=0;orthogonalLoop=1;jettySize=auto;html=1;" edge="1" parent="1" source="yxgYQERjwBnxyQySMjnh-24" target="yxgYQERjwBnxyQySMjnh-26">
          <mxGeometry relative="1" as="geometry" />
        </mxCell>
        <mxCell id="yxgYQERjwBnxyQySMjnh-24" value="exibir soma dos preços" style="rounded=1;whiteSpace=wrap;html=1;absoluteArcSize=1;arcSize=14;strokeWidth=2;" vertex="1" parent="1">
          <mxGeometry x="364" y="990" width="100" height="60" as="geometry" />
        </mxCell>
        <mxCell id="yxgYQERjwBnxyQySMjnh-30" style="edgeStyle=orthogonalEdgeStyle;rounded=0;orthogonalLoop=1;jettySize=auto;html=1;" edge="1" parent="1" source="yxgYQERjwBnxyQySMjnh-26" target="yxgYQERjwBnxyQySMjnh-28">
          <mxGeometry relative="1" as="geometry" />
        </mxCell>
        <mxCell id="yxgYQERjwBnxyQySMjnh-26" value="para cada elemento em dudes, exibir mensagem com nome e tipo de ingresso" style="rounded=1;whiteSpace=wrap;html=1;absoluteArcSize=1;arcSize=14;strokeWidth=2;" vertex="1" parent="1">
          <mxGeometry x="364" y="1090" width="100" height="100" as="geometry" />
        </mxCell>
        <mxCell id="yxgYQERjwBnxyQySMjnh-28" value="fim" style="strokeWidth=2;html=1;shape=mxgraph.flowchart.terminator;whiteSpace=wrap;" vertex="1" parent="1">
          <mxGeometry x="364" y="1230" width="100" height="60" as="geometry" />
        </mxCell>
      </root>
    </mxGraphModel>
  </diagram>
</mxfile>
